<svg width="123" height="30" viewBox="0 0 123 30" fill="none" xmlns="http://www.w3.org/2000/svg">
<g filter="url(#filter0_d_113_2)">
<path d="M19.66 5.528C19.768 6.302 19.876 7.427 19.984 8.903L20.038 10.307C20.038 12.917 20.38 15.248 21.064 17.3C21.154 17.588 21.199 17.957 21.199 18.407C21.199 18.659 21.181 19.001 21.145 19.433C21.127 19.721 21.019 19.946 20.821 20.108C20.623 20.288 20.371 20.378 20.065 20.378C20.029 20.378 19.93 20.36 19.768 20.324C19.318 20.216 18.976 20.018 18.742 19.73C18.508 19.424 18.391 19.055 18.391 18.623C18.391 18.479 18.4 18.371 18.418 18.299C18.418 18.191 18.418 18.038 18.418 17.84C18.418 17.516 18.4 17.219 18.364 16.949C18.22 16.247 17.995 15.311 17.689 14.141C17.581 13.655 17.356 13.412 17.014 13.412C16.888 13.412 16.744 13.439 16.582 13.493C16.024 13.655 15.529 13.808 15.097 13.952C14.683 14.096 14.314 14.213 13.99 14.303L12.694 14.681C11.956 14.897 11.272 15.068 10.642 15.194C9.976 15.338 9.49 15.707 9.184 16.301C8.896 16.841 8.482 17.57 7.942 18.488C7.6 19.1 7.15 19.406 6.592 19.406C6.322 19.406 6.052 19.343 5.782 19.217C5.53 19.073 5.314 18.893 5.134 18.677C4.864 18.371 4.729 18.074 4.729 17.786C4.729 17.588 4.783 17.381 4.891 17.165L6.754 13.385C8.806 9.209 10.03 6.707 10.426 5.879C11.56 3.683 13.099 2.171 15.043 1.343C15.457 1.145 15.88 1.046 16.312 1.046C16.852 1.046 17.347 1.19 17.797 1.478C18.265 1.748 18.625 2.135 18.877 2.639C19.237 3.377 19.498 4.34 19.66 5.528ZM10.939 12.359C13.405 11.927 15.502 11.576 17.23 11.306C17.194 9.578 17.14 8.219 17.068 7.229C17.014 6.221 16.888 5.213 16.69 4.205C15.736 4.313 15.016 4.781 14.53 5.609C13.684 6.941 12.874 8.318 12.1 9.74C11.974 9.974 11.74 10.496 11.398 11.306L10.939 12.359ZM24.2426 6.689C24.1706 6.041 24.2606 5.456 24.5126 4.934C24.7826 4.394 25.1606 3.872 25.6466 3.368L27.2936 3.233C27.5456 3.197 27.6986 3.179 27.7526 3.179C28.0226 3.179 28.3646 3.512 28.7786 4.178C28.8146 4.286 28.8506 4.421 28.8866 4.583C28.9226 4.727 28.9766 4.844 29.0486 4.934L32.1806 9.281C32.6486 9.875 33.1076 10.496 33.5576 11.144L34.0166 9.659C34.5926 7.769 35.1146 6.239 35.5826 5.069C36.0686 3.881 36.6986 2.756 37.4726 1.694L38.7686 1.883C39.1106 2.153 39.2276 2.513 39.1196 2.963C38.9576 3.611 38.7866 4.097 38.6066 4.421C38.1746 5.519 37.8146 6.635 37.5266 7.769C37.2386 8.885 36.9146 10.298 36.5546 12.008C36.5006 12.242 36.4286 12.593 36.3386 13.061C36.1946 13.781 35.9156 14.321 35.5016 14.681C35.0876 15.023 34.5206 15.212 33.8006 15.248C33.0806 15.284 32.4596 14.987 31.9376 14.357C31.3976 13.709 30.7226 12.836 29.9126 11.738L29.3726 11.009C28.8866 10.361 28.1486 9.407 27.1586 8.147L26.9156 9.308C26.6456 10.604 26.4836 11.621 26.4296 12.359L26.2676 15.626C26.2496 15.986 26.2316 16.445 26.2136 17.003C26.1956 17.543 26.1596 18.182 26.1056 18.92C26.0876 19.46 25.8986 19.928 25.5386 20.324C25.1966 20.72 24.7646 20.99 24.2426 21.134C23.9726 21.206 23.6396 21.134 23.2436 20.918C22.8656 20.72 22.6406 20.486 22.5686 20.216C22.4426 19.748 22.3796 19.334 22.3796 18.974C22.3796 18.65 22.4246 18.362 22.5146 18.11C22.6766 17.678 22.7846 16.994 22.8386 16.058C22.8746 15.482 22.9196 15.05 22.9736 14.762C23.2076 13.106 23.5676 10.82 24.0536 7.904C24.0716 7.76 24.1076 7.571 24.1616 7.337C24.2336 7.085 24.2606 6.869 24.2426 6.689ZM68.3433 5.528C68.4513 6.302 68.5593 7.427 68.6673 8.903L68.7213 10.307C68.7213 12.917 69.0633 15.248 69.7473 17.3C69.8373 17.588 69.8823 17.957 69.8823 18.407C69.8823 18.659 69.8643 19.001 69.8283 19.433C69.8103 19.721 69.7023 19.946 69.5043 20.108C69.3063 20.288 69.0543 20.378 68.7483 20.378C68.7123 20.378 68.6133 20.36 68.4513 20.324C68.0013 20.216 67.6593 20.018 67.4253 19.73C67.1913 19.424 67.0743 19.055 67.0743 18.623C67.0743 18.479 67.0833 18.371 67.1013 18.299C67.1013 18.191 67.1013 18.038 67.1013 17.84C67.1013 17.516 67.0833 17.219 67.0473 16.949C66.9033 16.247 66.6783 15.311 66.3723 14.141C66.2643 13.655 66.0393 13.412 65.6973 13.412C65.5713 13.412 65.4273 13.439 65.2653 13.493C64.7073 13.655 64.2123 13.808 63.7803 13.952C63.3663 14.096 62.9973 14.213 62.6733 14.303L61.3773 14.681C60.6393 14.897 59.9553 15.068 59.3253 15.194C58.6593 15.338 58.1733 15.707 57.8673 16.301C57.5793 16.841 57.1653 17.57 56.6253 18.488C56.2833 19.1 55.8333 19.406 55.2753 19.406C55.0053 19.406 54.7353 19.343 54.4653 19.217C54.2133 19.073 53.9973 18.893 53.8173 18.677C53.5473 18.371 53.4123 18.074 53.4123 17.786C53.4123 17.588 53.4663 17.381 53.5743 17.165L55.4373 13.385C57.4893 9.209 58.7133 6.707 59.1093 5.879C60.2433 3.683 61.7823 2.171 63.7263 1.343C64.1403 1.145 64.5633 1.046 64.9953 1.046C65.5353 1.046 66.0303 1.19 66.4803 1.478C66.9483 1.748 67.3083 2.135 67.5603 2.639C67.9203 3.377 68.1813 4.34 68.3433 5.528ZM59.6223 12.359C62.0883 11.927 64.1853 11.576 65.9133 11.306C65.8773 9.578 65.8233 8.219 65.7513 7.229C65.6973 6.221 65.5713 5.213 65.3733 4.205C64.4193 4.313 63.6993 4.781 63.2133 5.609C62.3673 6.941 61.5573 8.318 60.7833 9.74C60.6573 9.974 60.4233 10.496 60.0813 11.306L59.6223 12.359ZM96.5843 12.44C96.5123 12.89 96.3683 14.06 96.1523 15.95C96.0263 17.03 95.9543 17.588 95.9363 17.624L93.5603 17.246L94.0463 11.414L93.7493 11.63C93.5873 11.774 93.3623 11.999 93.0743 12.305C92.8043 12.593 92.5613 12.854 92.3453 13.088C91.6433 14.06 91.1303 14.717 90.8063 15.059C90.0143 15.887 89.2853 16.58 88.6193 17.138C87.9713 17.678 87.1973 18.173 86.2973 18.623C85.9373 18.803 85.4963 18.893 84.9743 18.893C84.5243 18.893 84.0923 18.812 83.6783 18.65C83.2643 18.488 82.9133 18.245 82.6253 17.921C81.2033 16.373 80.4923 14.501 80.4923 12.305C80.4923 11.675 80.5463 11.027 80.6543 10.361C80.7983 9.497 80.9783 8.651 81.1943 7.823C81.4103 6.977 81.7073 5.888 82.0853 4.556C82.2113 4.178 82.3823 3.611 82.5983 2.855C82.6883 2.495 82.8233 2.288 83.0033 2.234C83.0753 2.198 83.1383 2.18 83.1923 2.18C83.3903 2.18 83.6243 2.261 83.8943 2.423C84.4883 2.765 84.9113 3.098 85.1633 3.422C85.4333 3.746 85.5683 4.115 85.5683 4.529C85.5683 5.015 85.3793 5.654 85.0013 6.446C83.8853 8.822 83.3273 11.009 83.3273 13.007C83.3273 13.529 83.3453 13.916 83.3813 14.168C83.4173 14.582 83.6243 14.951 84.0023 15.275C84.3803 15.599 84.7943 15.761 85.2443 15.761C85.7303 15.761 86.1533 15.581 86.5133 15.221C88.3853 13.349 89.9243 11.45 91.1303 9.524C92.3363 7.598 93.2813 5.483 93.9653 3.179C94.0373 2.909 94.1183 2.648 94.2083 2.396L94.2623 2.342C95.3243 2.45 96.1613 2.864 96.7733 3.584C97.3853 4.286 97.6553 5.159 97.5833 6.203C97.0973 9.083 96.7643 11.162 96.5843 12.44ZM103.143 9.686L104.115 9.551C104.817 9.443 105.294 9.38 105.546 9.362L106.194 9.308C106.41 9.29 106.68 9.272 107.004 9.254C107.328 9.236 107.697 9.227 108.111 9.227C108.507 9.227 108.795 9.236 108.975 9.254C109.605 9.308 110.064 9.515 110.352 9.875C110.658 10.235 110.838 10.775 110.892 11.495C110.82 11.495 110.712 11.486 110.568 11.468C110.424 11.45 110.307 11.432 110.217 11.414C109.713 11.324 109.254 11.279 108.84 11.279C108.354 11.279 107.886 11.342 107.436 11.468C106.284 11.828 104.808 12.206 103.008 12.602C102.666 12.692 102.396 12.836 102.198 13.034C102.018 13.214 101.901 13.475 101.847 13.817C101.739 14.501 101.604 15.185 101.442 15.869C101.316 16.499 101.217 17.021 101.145 17.435C101.127 17.579 101.118 17.768 101.118 18.002C101.118 18.218 101.118 18.371 101.118 18.461C101.406 18.515 101.703 18.542 102.009 18.542C102.603 18.542 103.332 18.425 104.196 18.191C105.78 17.813 107.373 17.408 108.975 16.976L111.945 16.22C112.881 15.986 113.619 15.779 114.159 15.599C115.329 15.275 116.175 15.05 116.697 14.924C116.913 14.888 117.075 14.87 117.183 14.87C117.633 14.87 117.93 15.05 118.074 15.41C118.128 15.536 118.155 15.662 118.155 15.788C118.155 16.004 118.083 16.211 117.939 16.409C117.795 16.607 117.597 16.769 117.345 16.895C117.003 17.039 116.535 17.192 115.941 17.354C114.213 17.858 112.683 18.335 111.351 18.785C108.759 19.613 106.833 20.198 105.573 20.54C105.069 20.684 104.313 20.81 103.305 20.918L102.306 21.053C101.694 21.125 101.145 20.918 100.659 20.432L100.173 19.946C99.5794 19.388 99.1204 18.902 98.7964 18.488C98.5624 18.182 98.4634 17.759 98.4994 17.219C98.5534 16.589 98.6704 15.626 98.8504 14.33L98.9584 13.466L99.0394 12.656C98.4994 12.494 98.0764 12.296 97.7704 12.062C97.4824 11.81 97.3294 11.414 97.3114 10.874C97.8874 10.802 98.3194 10.766 98.6074 10.766C98.9314 10.748 99.1924 10.667 99.3904 10.523C99.5884 10.379 99.7414 10.145 99.8494 9.821C100.047 9.173 100.38 8.219 100.848 6.959C100.992 6.491 101.172 5.969 101.388 5.393C101.478 5.105 101.541 4.745 101.577 4.313C101.577 3.989 101.649 3.737 101.793 3.557C101.955 3.359 102.207 3.206 102.549 3.098C104.187 2.594 106.32 2.207 108.948 1.937C109.812 1.847 110.667 1.82 111.513 1.856C112.701 1.856 113.583 2.306 114.159 3.206C114.321 3.422 114.402 3.71 114.402 4.07C114.402 4.232 114.384 4.349 114.348 4.421C114.24 4.673 114.078 4.889 113.862 5.069C113.664 5.231 113.412 5.312 113.106 5.312L112.053 5.339C111.549 5.375 111.18 5.393 110.946 5.393C110.442 5.393 110.1 5.303 109.92 5.123C109.668 4.871 109.353 4.745 108.975 4.745C108.867 4.745 108.687 4.763 108.435 4.799L105.762 5.42L104.682 5.69L103.143 9.686Z" fill="#EAEAFF"/>
<path d="M40.4654 2.909C40.4834 2.927 40.2584 2.729 39.7904 2.315C39.4664 2.027 39.2234 1.82 39.0614 1.694C39.1334 1.208 39.3134 0.865999 39.6014 0.667999C39.8894 0.469999 40.2674 0.316999 40.7354 0.208999C41.2214 0.0829995 41.7434 0.0199997 42.3014 0.0199997C42.8414 0.0199997 43.3904 0.0739996 43.9484 0.181999C45.5504 0.469999 46.9634 0.802999 48.1874 1.181C49.4114 1.559 50.5544 2.09 51.6164 2.774C52.3544 3.224 52.9754 3.755 53.4794 4.367C54.2174 5.321 54.5864 6.293 54.5864 7.283C54.5864 8.129 54.3074 9.002 53.7494 9.902C51.6254 13.268 49.4384 15.923 47.1884 17.867C45.8204 19.073 44.3084 20.063 42.6524 20.837C42.0404 21.143 41.4014 21.296 40.7354 21.296C39.9434 21.296 39.1784 21.071 38.4404 20.621C38.1704 20.441 37.9634 20.252 37.8194 20.054C37.6754 19.874 37.6034 19.658 37.6034 19.406L37.6304 19.163L37.8194 17.759C38.0354 16.103 38.2334 14.87 38.4134 14.06L38.5484 13.466C39.0884 11.126 39.4934 9.245 39.7634 7.823C40.0334 6.383 40.2314 4.907 40.3574 3.395L40.4654 2.909ZM44.0294 2.585C43.8134 2.567 43.5254 2.585 43.1654 2.639L42.5714 2.72C43.0034 3.08 43.3184 3.395 43.5164 3.665C43.7144 3.935 43.8134 4.223 43.8134 4.529C43.8134 4.601 43.7954 4.727 43.7594 4.907C43.5254 5.951 43.2104 7.238 42.8144 8.768L41.8424 12.656C41.4104 14.42 41.0324 16.058 40.7084 17.57C40.6544 17.768 40.6184 17.993 40.6004 18.245C40.6004 18.479 40.6004 18.65 40.6004 18.758C40.7624 18.83 40.8524 18.866 40.8704 18.866L41.2214 18.731C43.9214 17.417 46.2254 15.581 48.1334 13.223C48.9074 12.233 49.5554 11.297 50.0774 10.415C50.6174 9.533 51.0224 8.606 51.2924 7.634C51.3644 7.4 51.4004 7.121 51.4004 6.797C51.4004 6.239 51.2564 5.735 50.9684 5.285C50.6984 4.835 50.3204 4.493 49.8344 4.259C48.0344 3.449 46.0994 2.891 44.0294 2.585ZM75.0859 18.596C75.5719 18.506 76.5799 18.299 78.1099 17.975L80.1889 17.543C80.4229 17.777 80.6209 17.984 80.7829 18.164C80.9449 18.344 81.0259 18.497 81.0259 18.623C81.0259 18.767 80.9539 18.911 80.8099 19.055C80.6659 19.199 80.3779 19.433 79.9459 19.757C79.8919 19.793 79.8289 19.856 79.7569 19.946C79.7029 20.036 79.6399 20.09 79.5679 20.108L78.8389 20.297C78.2269 20.477 77.6779 20.612 77.1919 20.702C76.7239 20.81 76.2469 20.864 75.7609 20.864C74.0329 20.864 72.6199 20.351 71.5219 19.325C71.1079 18.947 70.7839 18.569 70.5499 18.191C70.3339 17.795 70.2259 17.372 70.2259 16.922C70.2259 16.724 70.2349 16.58 70.2529 16.49C70.5409 14.708 70.8649 13.196 71.2249 11.954C71.6029 10.586 72.2869 8.264 73.2769 4.988C73.4929 4.214 73.8349 3.053 74.3029 1.505C74.4289 1.091 74.5999 0.803 74.8159 0.641C75.0499 0.479 75.3829 0.415999 75.8149 0.451999C75.9049 0.451999 75.9859 0.460999 76.0579 0.478999C76.1479 0.496998 76.2379 0.505998 76.3279 0.505998C77.4439 0.595999 78.0019 1.136 78.0019 2.126C78.0019 2.378 77.9659 2.639 77.8939 2.909C77.7499 3.485 77.4799 4.259 77.0839 5.231C75.6259 8.939 74.5009 12.512 73.7089 15.95C73.6009 16.382 73.5469 16.832 73.5469 17.3C73.5469 18.182 73.9339 18.623 74.7079 18.623C74.8699 18.623 74.9959 18.614 75.0859 18.596Z" fill="#375FEC"/>
</g>
<defs>
<filter id="filter0_d_113_2" x="0.729004" y="0.019989" width="121.426" height="29.276" filterUnits="userSpaceOnUse" color-interpolation-filters="sRGB">
<feFlood flood-opacity="0" result="BackgroundImageFix"/>
<feColorMatrix in="SourceAlpha" type="matrix" values="0 0 0 0 0 0 0 0 0 0 0 0 0 0 0 0 0 0 127 0" result="hardAlpha"/>
<feOffset dy="4"/>
<feGaussianBlur stdDeviation="2"/>
<feComposite in2="hardAlpha" operator="out"/>
<feColorMatrix type="matrix" values="0 0 0 0 0 0 0 0 0 0 0 0 0 0 0 0 0 0 0.25 0"/>
<feBlend mode="normal" in2="BackgroundImageFix" result="effect1_dropShadow_113_2"/>
<feBlend mode="normal" in="SourceGraphic" in2="effect1_dropShadow_113_2" result="shape"/>
</filter>
</defs>
</svg>
