<svg width="252" height="39" viewBox="0 0 252 39" fill="none" xmlns="http://www.w3.org/2000/svg">
<g filter="url(#filter0_d_113_2)">
<path d="M4.16 13.711C4.142 13.585 4.133 13.378 4.133 13.09C4.133 12.388 4.205 11.704 4.349 11.038C4.493 10.372 4.7 9.643 4.97 8.851C5.24 8.113 5.753 7.375 6.509 6.637C7.265 5.899 8.111 5.296 9.047 4.828C9.983 4.342 10.829 4.099 11.585 4.099C12.359 4.099 13.115 4.387 13.853 4.963C14.591 5.521 15.059 6.16 15.257 6.88C15.293 7.096 15.311 7.24 15.311 7.312C15.311 7.582 15.23 7.789 15.068 7.933C14.924 8.059 14.726 8.122 14.474 8.122C14.276 8.122 14.123 8.113 14.015 8.095C13.961 8.095 13.88 8.059 13.772 7.987C13.25 7.699 12.746 7.555 12.26 7.555C11.342 7.555 10.433 8.032 9.533 8.986C8.003 10.588 7.238 12.496 7.238 14.71C7.238 15.502 7.319 16.267 7.481 17.005C7.661 17.833 7.976 18.445 8.426 18.841C8.894 19.219 9.515 19.408 10.289 19.408C10.559 19.408 10.856 19.381 11.18 19.327C12.314 19.183 13.358 18.841 14.312 18.301C15.266 17.743 16.319 17.005 17.471 16.087C17.741 15.871 18.218 15.421 18.902 14.737L19.442 14.17C19.676 13.936 19.874 13.774 20.036 13.684C20.216 13.576 20.378 13.522 20.522 13.522C20.756 13.522 21.044 13.639 21.386 13.873C21.764 14.143 21.953 14.485 21.953 14.899C21.953 15.187 21.854 15.457 21.656 15.709C21.584 15.835 21.386 16.132 21.062 16.6C20.738 17.05 20.423 17.455 20.117 17.815C19.811 18.175 19.505 18.481 19.199 18.733C17.543 20.191 15.815 21.172 14.015 21.676C13.223 21.892 12.431 22 11.639 22C10.181 22 8.885 21.631 7.751 20.893C6.635 20.155 5.762 19.192 5.132 18.004C4.502 16.798 4.178 15.547 4.16 14.251V13.711ZM22.2173 8.419C22.9193 7.249 24.0083 6.223 25.4843 5.341C26.6543 4.639 28.0133 4.288 29.5613 4.288C30.6593 4.288 31.7213 4.477 32.7473 4.855C33.7733 5.215 34.6193 5.728 35.2853 6.394C35.5193 6.628 35.7713 6.853 36.0413 7.069C36.4553 7.429 36.6983 7.654 36.7703 7.744C37.6703 8.698 38.1203 9.751 38.1203 10.903C38.1203 11.803 37.8323 12.721 37.2563 13.657C36.5003 14.899 35.7173 15.988 34.9073 16.924C34.0973 17.86 33.1883 18.661 32.1803 19.327C30.4703 20.461 28.8323 21.028 27.2663 21.028C26.7983 21.028 26.3303 20.974 25.8623 20.866C24.2963 20.524 23.0273 19.795 22.0553 18.679C21.0833 17.545 20.5973 16.258 20.5973 14.818C20.5973 13.72 20.9033 12.622 21.5153 11.524C21.5513 11.434 21.6233 11.344 21.7313 11.254C21.8573 11.164 21.9563 11.092 22.0283 11.038L22.6493 11.335L23.2433 11.632C23.8013 11.938 24.1613 12.19 24.3233 12.388C24.5033 12.586 24.5933 12.865 24.5933 13.225C24.5933 13.477 24.5663 13.819 24.5123 14.251C24.4943 14.413 24.4853 14.647 24.4853 14.953C24.4853 15.619 24.5663 16.42 24.7283 17.356C24.7643 17.626 24.8723 17.833 25.0523 17.977C25.2503 18.121 25.4933 18.193 25.7813 18.193C25.9253 18.193 26.0423 18.184 26.1323 18.166C26.9783 18.004 27.6983 17.815 28.2923 17.599C28.9043 17.383 29.4533 17.059 29.9393 16.627C30.8393 15.853 31.6223 15.106 32.2883 14.386C32.9543 13.666 33.5393 12.892 34.0433 12.064C34.3853 11.488 34.5563 10.93 34.5563 10.39C34.5563 9.94 34.4573 9.499 34.2593 9.067C34.0613 8.635 33.7733 8.149 33.3953 7.609C32.7653 6.745 31.9463 6.313 30.9383 6.313C30.5783 6.313 30.2093 6.367 29.8313 6.475C29.7053 6.511 29.1293 6.7 28.1033 7.042C27.9953 7.078 27.8783 7.114 27.7523 7.15C27.6443 7.186 27.5273 7.222 27.4013 7.258L24.3233 8.149C23.9273 8.275 23.3153 8.446 22.4873 8.662L22.2173 8.419ZM51.3102 15.385C51.3282 15.205 51.3372 14.926 51.3372 14.548C51.3552 14.422 51.3642 14.215 51.3642 13.927L50.7432 14.521C50.2212 15.007 49.8162 15.367 49.5282 15.601C49.1142 15.907 48.7542 16.051 48.4482 16.033C47.7462 15.979 47.1432 15.835 46.6392 15.601C46.1532 15.349 45.7842 14.926 45.5322 14.332L44.3982 11.578C44.3802 11.596 44.3262 11.659 44.2362 11.767C44.1642 11.857 44.1102 11.956 44.0742 12.064C43.2822 13.954 42.4722 15.97 41.6442 18.112C41.1762 19.318 40.7712 20.515 40.4292 21.703C40.3392 22.009 40.1862 22.225 39.9702 22.351C39.7722 22.477 39.5112 22.54 39.1872 22.54C38.6652 22.54 38.1702 22.351 37.7022 21.973C37.2522 21.595 37.0272 21.136 37.0272 20.596C37.0272 20.398 37.0722 20.182 37.1622 19.948C37.5582 18.904 37.8462 18.121 38.0262 17.599C38.9442 15.133 39.7272 13.153 40.3752 11.659C41.0412 10.147 41.8602 8.689 42.8322 7.285C43.2102 6.727 43.4532 6.394 43.5612 6.286C43.8852 5.89 44.2902 5.692 44.7762 5.692C44.8842 5.692 45.0282 5.71 45.2082 5.746C45.9462 5.89 46.4412 6.025 46.6932 6.151C46.9632 6.259 47.1432 6.448 47.2332 6.718C47.3412 6.97 47.4582 7.465 47.5842 8.203L48.0702 11.632C48.4482 11.416 48.8712 11.065 49.3392 10.579C49.8252 10.075 50.2842 9.517 50.7162 8.905C50.6622 8.977 50.9412 8.617 51.5532 7.825C51.7512 7.591 52.0302 7.24 52.3902 6.772C52.6962 6.34 53.1012 6.124 53.6052 6.124C53.7852 6.124 53.9652 6.151 54.1452 6.205C54.7932 6.349 55.2612 6.565 55.5492 6.853C55.8372 7.141 55.9812 7.555 55.9812 8.095C55.9812 8.419 55.9452 8.752 55.8732 9.094L55.3062 11.902C54.6222 15.394 54.2442 17.356 54.1722 17.788L53.3082 22.81C53.1822 23.674 52.9752 24.952 52.6872 26.644C52.6692 26.842 52.6062 27.121 52.4982 27.481C52.4442 27.643 52.3632 27.922 52.2552 28.318C52.1472 28.714 52.0752 29.065 52.0392 29.371C52.0032 29.677 51.9132 29.902 51.7692 30.046C51.6252 30.208 51.4092 30.298 51.1212 30.316C50.7792 30.334 50.5002 30.253 50.2842 30.073C50.0682 29.911 49.9512 29.668 49.9332 29.344L49.9062 27.562C49.9062 26.968 49.9332 26.374 49.9872 25.78C50.2212 23.692 50.4912 21.577 50.7972 19.435L51.3102 15.385ZM63.9667 14.629C63.6247 14.755 63.3457 14.818 63.1297 14.818C62.7337 14.818 62.3557 14.683 61.9957 14.413C61.6537 14.143 61.3657 13.774 61.1317 13.306L61.8877 12.82C62.7517 12.244 63.3907 11.803 63.8047 11.497C65.1907 10.417 66.3967 9.409 67.4227 8.473C67.6207 8.311 67.8547 7.978 68.1247 7.474L68.5027 6.826L68.0167 6.583C67.9627 6.565 67.8367 6.52 67.6387 6.448C67.4587 6.358 67.3057 6.304 67.1797 6.286C65.6137 6.124 63.8587 5.98 61.9147 5.854C61.3027 5.8 60.9067 6.133 60.7267 6.853L58.4587 17.356C58.3327 17.896 58.2337 18.373 58.1617 18.787C58.0897 19.183 58.0267 19.516 57.9727 19.786L57.7297 21.001C57.6577 21.289 57.5407 21.523 57.3787 21.703C57.2167 21.865 56.9827 21.955 56.6767 21.973L56.3257 22C55.9837 22 55.7407 21.919 55.5967 21.757C55.4707 21.595 55.4167 21.307 55.4347 20.893L55.4887 19.813C55.5967 17.689 55.7317 16.096 55.8937 15.034C56.0017 14.26 56.1547 13.405 56.3527 12.469C56.5687 11.533 56.7127 10.921 56.7847 10.633C57.0367 9.589 57.2167 8.797 57.3247 8.257L55.9207 8.014C55.7047 7.546 55.5967 7.141 55.5967 6.799C55.5967 6.223 55.8667 5.638 56.4067 5.044C56.7847 4.612 57.2347 4.261 57.7567 3.991C58.2787 3.721 58.8187 3.541 59.3767 3.451C60.1867 3.361 60.9067 3.316 61.5367 3.316C64.0027 3.316 66.5047 3.838 69.0427 4.882C69.3487 5.008 69.6547 5.206 69.9607 5.476C70.2667 5.728 70.4647 5.89 70.5547 5.962C71.2567 6.556 71.6077 7.177 71.6077 7.825C71.6077 8.257 71.4727 8.734 71.2027 9.256C71.0587 9.562 70.8157 9.913 70.4737 10.309C68.7997 12.145 66.6307 13.585 63.9667 14.629ZM69.4673 15.007C70.1873 12.901 70.9253 10.858 71.6813 8.878L72.3293 7.096C71.7893 7.042 71.5193 6.835 71.5193 6.475C71.5193 6.349 71.5463 6.223 71.6003 6.097C72.0323 5.125 72.3833 4.414 72.6533 3.964C73.0493 3.298 73.4363 2.695 73.8143 2.155L74.5433 1.048C74.8313 0.975999 75.0383 0.939999 75.1643 0.939999C75.3983 0.939999 75.6233 0.975999 75.8393 1.048C76.0733 1.12 76.2983 1.21 76.5143 1.318C76.7483 1.408 76.9373 1.48 77.0813 1.534C77.5313 1.732 77.7563 2.083 77.7563 2.587C77.7563 2.821 77.7203 3.046 77.6483 3.262C77.3423 4.252 76.8293 5.719 76.1093 7.663L74.8943 10.822C73.9583 13.234 73.2743 15.043 72.8423 16.249C72.5903 17.005 72.3833 17.824 72.2213 18.706C72.0773 19.588 71.9873 20.11 71.9513 20.272C71.9153 20.524 71.8973 20.686 71.8973 20.758C71.8973 21.028 71.9693 21.226 72.1133 21.352C72.2753 21.478 72.5363 21.577 72.8963 21.649C73.4723 21.739 74.1833 21.784 75.0293 21.784C77.8373 21.748 80.5913 21.316 83.2913 20.488C83.3093 20.506 83.3273 20.515 83.3453 20.515C83.3633 20.515 83.3813 20.533 83.3993 20.569L83.6963 21.46C83.2823 21.946 82.7963 22.315 82.2383 22.567C81.6983 22.819 81.0143 23.053 80.1863 23.269C79.5383 23.449 78.8903 23.566 78.2423 23.62C77.6123 23.692 76.7213 23.755 75.5693 23.809C75.3893 23.827 75.1283 23.836 74.7863 23.836C74.0303 23.836 73.2833 23.782 72.5453 23.674C71.5373 23.53 70.5113 23.044 69.4673 22.216C68.6573 21.532 68.2523 20.713 68.2523 19.759C68.2523 19.435 68.2883 19.138 68.3603 18.868C68.7023 17.41 69.0713 16.123 69.4673 15.007ZM88.9849 11.686L89.9569 11.551C90.6589 11.443 91.1359 11.38 91.3879 11.362L92.0359 11.308C92.2519 11.29 92.5219 11.272 92.8459 11.254C93.1699 11.236 93.5389 11.227 93.9529 11.227C94.3489 11.227 94.6369 11.236 94.8169 11.254C95.4469 11.308 95.9059 11.515 96.1939 11.875C96.4999 12.235 96.6799 12.775 96.7339 13.495C96.6619 13.495 96.5539 13.486 96.4099 13.468C96.2659 13.45 96.1489 13.432 96.0589 13.414C95.5549 13.324 95.0959 13.279 94.6819 13.279C94.1959 13.279 93.7279 13.342 93.2779 13.468C92.1259 13.828 90.6499 14.206 88.8499 14.602C88.5079 14.692 88.2379 14.836 88.0399 15.034C87.8599 15.214 87.7429 15.475 87.6889 15.817C87.5809 16.501 87.4459 17.185 87.2839 17.869C87.1579 18.499 87.0589 19.021 86.9869 19.435C86.9689 19.579 86.9599 19.768 86.9599 20.002C86.9599 20.218 86.9599 20.371 86.9599 20.461C87.2479 20.515 87.5449 20.542 87.8509 20.542C88.4449 20.542 89.1739 20.425 90.0379 20.191C91.6219 19.813 93.2149 19.408 94.8169 18.976L97.7869 18.22C98.7229 17.986 99.4609 17.779 100.001 17.599C101.171 17.275 102.017 17.05 102.539 16.924C102.755 16.888 102.917 16.87 103.025 16.87C103.475 16.87 103.772 17.05 103.916 17.41C103.97 17.536 103.997 17.662 103.997 17.788C103.997 18.004 103.925 18.211 103.781 18.409C103.637 18.607 103.439 18.769 103.187 18.895C102.845 19.039 102.377 19.192 101.783 19.354C100.055 19.858 98.5249 20.335 97.1929 20.785C94.6009 21.613 92.6749 22.198 91.4149 22.54C90.9109 22.684 90.1549 22.81 89.1469 22.918L88.1479 23.053C87.5359 23.125 86.9869 22.918 86.5009 22.432L86.0149 21.946C85.4209 21.388 84.9619 20.902 84.6379 20.488C84.4039 20.182 84.3049 19.759 84.3409 19.219C84.3949 18.589 84.5119 17.626 84.6919 16.33L84.7999 15.466L84.8809 14.656C84.3409 14.494 83.9179 14.296 83.6119 14.062C83.3239 13.81 83.1709 13.414 83.1529 12.874C83.7289 12.802 84.1609 12.766 84.4489 12.766C84.7729 12.748 85.0339 12.667 85.2319 12.523C85.4299 12.379 85.5829 12.145 85.6909 11.821C85.8889 11.173 86.2219 10.219 86.6899 8.959C86.8339 8.491 87.0139 7.969 87.2299 7.393C87.3199 7.105 87.3829 6.745 87.4189 6.313C87.4189 5.989 87.4909 5.737 87.6349 5.557C87.7969 5.359 88.0489 5.206 88.3909 5.098C90.0289 4.594 92.1619 4.207 94.7899 3.937C95.6539 3.847 96.5089 3.82 97.3549 3.856C98.5429 3.856 99.4249 4.306 100.001 5.206C100.163 5.422 100.244 5.71 100.244 6.07C100.244 6.232 100.226 6.349 100.19 6.421C100.082 6.673 99.9199 6.889 99.7039 7.069C99.5059 7.231 99.2539 7.312 98.9479 7.312L97.8949 7.339C97.3909 7.375 97.0219 7.393 96.7879 7.393C96.2839 7.393 95.9419 7.303 95.7619 7.123C95.5099 6.871 95.1949 6.745 94.8169 6.745C94.7089 6.745 94.5289 6.763 94.2769 6.799L91.6039 7.42L90.5239 7.69L88.9849 11.686ZM102.512 21.082C101.81 20.758 101.252 20.281 100.838 19.651C101.18 19.219 101.594 19.003 102.08 19.003C102.314 19.003 102.566 19.048 102.836 19.138C103.124 19.228 103.313 19.291 103.403 19.327C103.925 19.507 104.474 19.597 105.05 19.597C105.968 19.597 106.823 19.381 107.615 18.949C108.425 18.517 109.028 17.932 109.424 17.194C110.45 15.286 110.963 13.054 110.963 10.498C110.963 9.328 110.855 7.96 110.639 6.394C110.135 6.412 109.685 6.502 109.289 6.664C108.911 6.826 108.416 7.087 107.804 7.447C107.39 7.681 106.949 7.798 106.481 7.798C106.193 7.798 105.932 7.762 105.698 7.69C105.5 7.636 105.293 7.546 105.077 7.42C104.879 7.276 104.744 7.123 104.672 6.961C104.618 6.853 104.591 6.736 104.591 6.61C104.591 6.43 104.654 6.259 104.78 6.097C104.906 5.935 105.059 5.809 105.239 5.719C106.589 5.071 107.867 4.522 109.073 4.072C109.361 3.982 109.712 3.919 110.126 3.883C110.504 3.847 110.783 3.802 110.963 3.748C111.503 3.622 111.953 3.559 112.313 3.559C113.051 3.559 113.717 3.82 114.311 4.342V5.881C114.329 6.385 114.338 7.15 114.338 8.176V9.121L114.311 9.877C114.275 11.479 114.194 12.838 114.068 13.954C113.942 15.052 113.672 16.132 113.258 17.194C112.79 18.364 112.16 19.309 111.368 20.029C110.594 20.749 109.604 21.226 108.398 21.46C107.462 21.658 106.58 21.757 105.752 21.757C104.6 21.757 103.52 21.532 102.512 21.082ZM115.444 8.419C116.146 7.249 117.235 6.223 118.711 5.341C119.881 4.639 121.24 4.288 122.788 4.288C123.886 4.288 124.948 4.477 125.974 4.855C127 5.215 127.846 5.728 128.512 6.394C128.746 6.628 128.998 6.853 129.268 7.069C129.682 7.429 129.925 7.654 129.997 7.744C130.897 8.698 131.347 9.751 131.347 10.903C131.347 11.803 131.059 12.721 130.483 13.657C129.727 14.899 128.944 15.988 128.134 16.924C127.324 17.86 126.415 18.661 125.407 19.327C123.697 20.461 122.059 21.028 120.493 21.028C120.025 21.028 119.557 20.974 119.089 20.866C117.523 20.524 116.254 19.795 115.282 18.679C114.31 17.545 113.824 16.258 113.824 14.818C113.824 13.72 114.13 12.622 114.742 11.524C114.778 11.434 114.85 11.344 114.958 11.254C115.084 11.164 115.183 11.092 115.255 11.038L115.876 11.335L116.47 11.632C117.028 11.938 117.388 12.19 117.55 12.388C117.73 12.586 117.82 12.865 117.82 13.225C117.82 13.477 117.793 13.819 117.739 14.251C117.721 14.413 117.712 14.647 117.712 14.953C117.712 15.619 117.793 16.42 117.955 17.356C117.991 17.626 118.099 17.833 118.279 17.977C118.477 18.121 118.72 18.193 119.008 18.193C119.152 18.193 119.269 18.184 119.359 18.166C120.205 18.004 120.925 17.815 121.519 17.599C122.131 17.383 122.68 17.059 123.166 16.627C124.066 15.853 124.849 15.106 125.515 14.386C126.181 13.666 126.766 12.892 127.27 12.064C127.612 11.488 127.783 10.93 127.783 10.39C127.783 9.94 127.684 9.499 127.486 9.067C127.288 8.635 127 8.149 126.622 7.609C125.992 6.745 125.173 6.313 124.165 6.313C123.805 6.313 123.436 6.367 123.058 6.475C122.932 6.511 122.356 6.7 121.33 7.042C121.222 7.078 121.105 7.114 120.979 7.15C120.871 7.186 120.754 7.222 120.628 7.258L117.55 8.149C117.154 8.275 116.542 8.446 115.714 8.662L115.444 8.419ZM135.303 20.407C134.907 20.407 134.574 20.308 134.304 20.11C134.052 19.912 133.872 19.543 133.764 19.003C134.34 19.057 134.763 18.931 135.033 18.625C135.321 18.319 135.582 17.86 135.816 17.248L136.383 15.628C136.491 15.34 136.761 14.584 137.193 13.36C137.643 12.136 138.102 10.993 138.57 9.931C139.182 8.491 140.118 6.745 141.378 4.693C141.702 4.189 142.089 3.811 142.539 3.559C142.989 3.289 143.466 3.154 143.97 3.154C144.42 3.154 144.852 3.271 145.266 3.505C145.698 3.721 146.076 4.045 146.4 4.477C146.67 4.837 146.913 5.233 147.129 5.665C147.345 6.079 147.615 6.637 147.939 7.339L148.452 8.419C148.578 8.707 148.677 9.103 148.749 9.607C148.839 10.435 149.208 10.948 149.856 11.146C149.946 11.182 150.045 11.272 150.153 11.416C150.261 11.542 150.351 11.65 150.423 11.74C149.883 12.1 149.613 12.577 149.613 13.171C149.613 13.495 149.694 13.945 149.856 14.521C150.072 15.295 150.288 16.168 150.504 17.14C150.738 18.094 150.891 18.742 150.963 19.084L151.287 20.569C151.305 20.641 151.314 20.74 151.314 20.866L151.287 21.595C151.125 21.649 150.909 21.73 150.639 21.838C150.369 21.946 150.144 22 149.964 22C149.478 22 148.938 21.892 148.344 21.676C148.11 21.604 147.957 21.487 147.885 21.325C147.831 21.145 147.804 20.929 147.804 20.677C147.804 20.425 147.795 20.245 147.777 20.137L147.642 19.381C147.048 16.123 146.697 14.314 146.589 13.954C146.157 14.08 145.608 14.17 144.942 14.224C144.15 14.332 143.601 14.431 143.295 14.521C143.133 14.575 142.854 14.602 142.458 14.602L141.351 14.575C140.847 14.575 140.469 14.629 140.217 14.737C140.073 14.809 139.749 15.52 139.245 16.87C138.867 17.842 138.633 18.409 138.543 18.571C138.201 19.201 137.751 19.669 137.193 19.975C136.635 20.263 136.005 20.407 135.303 20.407ZM141.405 11.578C141.747 11.524 142.143 11.497 142.593 11.497H143.565C144.141 11.497 144.627 11.47 145.023 11.416C145.437 11.344 145.806 11.209 146.13 11.011C145.986 10.615 145.662 9.931 145.158 8.959C144.6 7.861 144.213 7.006 143.997 6.394C143.313 7.492 142.764 8.428 142.35 9.202C141.954 9.976 141.639 10.768 141.405 11.578ZM153.474 8.689C153.402 8.041 153.492 7.456 153.744 6.934C154.014 6.394 154.392 5.872 154.878 5.368L156.525 5.233C156.777 5.197 156.93 5.179 156.984 5.179C157.254 5.179 157.596 5.512 158.01 6.178C158.046 6.286 158.082 6.421 158.118 6.583C158.154 6.727 158.208 6.844 158.28 6.934L161.412 11.281C161.88 11.875 162.339 12.496 162.789 13.144L163.248 11.659C163.824 9.769 164.346 8.239 164.814 7.069C165.3 5.881 165.93 4.756 166.704 3.694L168 3.883C168.342 4.153 168.459 4.513 168.351 4.963C168.189 5.611 168.018 6.097 167.838 6.421C167.406 7.519 167.046 8.635 166.758 9.769C166.47 10.885 166.146 12.298 165.786 14.008C165.732 14.242 165.66 14.593 165.57 15.061C165.426 15.781 165.147 16.321 164.733 16.681C164.319 17.023 163.752 17.212 163.032 17.248C162.312 17.284 161.691 16.987 161.169 16.357C160.629 15.709 159.954 14.836 159.144 13.738L158.604 13.009C158.118 12.361 157.38 11.407 156.39 10.147L156.147 11.308C155.877 12.604 155.715 13.621 155.661 14.359L155.499 17.626C155.481 17.986 155.463 18.445 155.445 19.003C155.427 19.543 155.391 20.182 155.337 20.92C155.319 21.46 155.13 21.928 154.77 22.324C154.428 22.72 153.996 22.99 153.474 23.134C153.204 23.206 152.871 23.134 152.475 22.918C152.097 22.72 151.872 22.486 151.8 22.216C151.674 21.748 151.611 21.334 151.611 20.974C151.611 20.65 151.656 20.362 151.746 20.11C151.908 19.678 152.016 18.994 152.07 18.058C152.106 17.482 152.151 17.05 152.205 16.762C152.439 15.106 152.799 12.82 153.285 9.904C153.303 9.76 153.339 9.571 153.393 9.337C153.465 9.085 153.492 8.869 153.474 8.689ZM197.575 7.528C197.683 8.302 197.791 9.427 197.899 10.903L197.953 12.307C197.953 14.917 198.295 17.248 198.979 19.3C199.069 19.588 199.114 19.957 199.114 20.407C199.114 20.659 199.096 21.001 199.06 21.433C199.042 21.721 198.934 21.946 198.736 22.108C198.538 22.288 198.286 22.378 197.98 22.378C197.944 22.378 197.845 22.36 197.683 22.324C197.233 22.216 196.891 22.018 196.657 21.73C196.423 21.424 196.306 21.055 196.306 20.623C196.306 20.479 196.315 20.371 196.333 20.299C196.333 20.191 196.333 20.038 196.333 19.84C196.333 19.516 196.315 19.219 196.279 18.949C196.135 18.247 195.91 17.311 195.604 16.141C195.496 15.655 195.271 15.412 194.929 15.412C194.803 15.412 194.659 15.439 194.497 15.493C193.939 15.655 193.444 15.808 193.012 15.952C192.598 16.096 192.229 16.213 191.905 16.303L190.609 16.681C189.871 16.897 189.187 17.068 188.557 17.194C187.891 17.338 187.405 17.707 187.099 18.301C186.811 18.841 186.397 19.57 185.857 20.488C185.515 21.1 185.065 21.406 184.507 21.406C184.237 21.406 183.967 21.343 183.697 21.217C183.445 21.073 183.229 20.893 183.049 20.677C182.779 20.371 182.644 20.074 182.644 19.786C182.644 19.588 182.698 19.381 182.806 19.165L184.669 15.385C186.721 11.209 187.945 8.707 188.341 7.879C189.475 5.683 191.014 4.171 192.958 3.343C193.372 3.145 193.795 3.046 194.227 3.046C194.767 3.046 195.262 3.19 195.712 3.478C196.18 3.748 196.54 4.135 196.792 4.639C197.152 5.377 197.413 6.34 197.575 7.528ZM188.854 14.359C191.32 13.927 193.417 13.576 195.145 13.306C195.109 11.578 195.055 10.219 194.983 9.229C194.929 8.221 194.803 7.213 194.605 6.205C193.651 6.313 192.931 6.781 192.445 7.609C191.599 8.941 190.789 10.318 190.015 11.74C189.889 11.974 189.655 12.496 189.313 13.306L188.854 14.359ZM225.816 14.44C225.744 14.89 225.6 16.06 225.384 17.95C225.258 19.03 225.186 19.588 225.168 19.624L222.792 19.246L223.278 13.414L222.981 13.63C222.819 13.774 222.594 13.999 222.306 14.305C222.036 14.593 221.793 14.854 221.577 15.088C220.875 16.06 220.362 16.717 220.038 17.059C219.246 17.887 218.517 18.58 217.851 19.138C217.203 19.678 216.429 20.173 215.529 20.623C215.169 20.803 214.728 20.893 214.206 20.893C213.756 20.893 213.324 20.812 212.91 20.65C212.496 20.488 212.145 20.245 211.857 19.921C210.435 18.373 209.724 16.501 209.724 14.305C209.724 13.675 209.778 13.027 209.886 12.361C210.03 11.497 210.21 10.651 210.426 9.823C210.642 8.977 210.939 7.888 211.317 6.556C211.443 6.178 211.614 5.611 211.83 4.855C211.92 4.495 212.055 4.288 212.235 4.234C212.307 4.198 212.37 4.18 212.424 4.18C212.622 4.18 212.856 4.261 213.126 4.423C213.72 4.765 214.143 5.098 214.395 5.422C214.665 5.746 214.8 6.115 214.8 6.529C214.8 7.015 214.611 7.654 214.233 8.446C213.117 10.822 212.559 13.009 212.559 15.007C212.559 15.529 212.577 15.916 212.613 16.168C212.649 16.582 212.856 16.951 213.234 17.275C213.612 17.599 214.026 17.761 214.476 17.761C214.962 17.761 215.385 17.581 215.745 17.221C217.617 15.349 219.156 13.45 220.362 11.524C221.568 9.598 222.513 7.483 223.197 5.179C223.269 4.909 223.35 4.648 223.44 4.396L223.494 4.342C224.556 4.45 225.393 4.864 226.005 5.584C226.617 6.286 226.887 7.159 226.815 8.203C226.329 11.083 225.996 13.162 225.816 14.44ZM232.375 11.686L233.347 11.551C234.049 11.443 234.526 11.38 234.778 11.362L235.426 11.308C235.642 11.29 235.912 11.272 236.236 11.254C236.56 11.236 236.929 11.227 237.343 11.227C237.739 11.227 238.027 11.236 238.207 11.254C238.837 11.308 239.296 11.515 239.584 11.875C239.89 12.235 240.07 12.775 240.124 13.495C240.052 13.495 239.944 13.486 239.8 13.468C239.656 13.45 239.539 13.432 239.449 13.414C238.945 13.324 238.486 13.279 238.072 13.279C237.586 13.279 237.118 13.342 236.668 13.468C235.516 13.828 234.04 14.206 232.24 14.602C231.898 14.692 231.628 14.836 231.43 15.034C231.25 15.214 231.133 15.475 231.079 15.817C230.971 16.501 230.836 17.185 230.674 17.869C230.548 18.499 230.449 19.021 230.377 19.435C230.359 19.579 230.35 19.768 230.35 20.002C230.35 20.218 230.35 20.371 230.35 20.461C230.638 20.515 230.935 20.542 231.241 20.542C231.835 20.542 232.564 20.425 233.428 20.191C235.012 19.813 236.605 19.408 238.207 18.976L241.177 18.22C242.113 17.986 242.851 17.779 243.391 17.599C244.561 17.275 245.407 17.05 245.929 16.924C246.145 16.888 246.307 16.87 246.415 16.87C246.865 16.87 247.162 17.05 247.306 17.41C247.36 17.536 247.387 17.662 247.387 17.788C247.387 18.004 247.315 18.211 247.171 18.409C247.027 18.607 246.829 18.769 246.577 18.895C246.235 19.039 245.767 19.192 245.173 19.354C243.445 19.858 241.915 20.335 240.583 20.785C237.991 21.613 236.065 22.198 234.805 22.54C234.301 22.684 233.545 22.81 232.537 22.918L231.538 23.053C230.926 23.125 230.377 22.918 229.891 22.432L229.405 21.946C228.811 21.388 228.352 20.902 228.028 20.488C227.794 20.182 227.695 19.759 227.731 19.219C227.785 18.589 227.902 17.626 228.082 16.33L228.19 15.466L228.271 14.656C227.731 14.494 227.308 14.296 227.002 14.062C226.714 13.81 226.561 13.414 226.543 12.874C227.119 12.802 227.551 12.766 227.839 12.766C228.163 12.748 228.424 12.667 228.622 12.523C228.82 12.379 228.973 12.145 229.081 11.821C229.279 11.173 229.612 10.219 230.08 8.959C230.224 8.491 230.404 7.969 230.62 7.393C230.71 7.105 230.773 6.745 230.809 6.313C230.809 5.989 230.881 5.737 231.025 5.557C231.187 5.359 231.439 5.206 231.781 5.098C233.419 4.594 235.552 4.207 238.18 3.937C239.044 3.847 239.899 3.82 240.745 3.856C241.933 3.856 242.815 4.306 243.391 5.206C243.553 5.422 243.634 5.71 243.634 6.07C243.634 6.232 243.616 6.349 243.58 6.421C243.472 6.673 243.31 6.889 243.094 7.069C242.896 7.231 242.644 7.312 242.338 7.312L241.285 7.339C240.781 7.375 240.412 7.393 240.178 7.393C239.674 7.393 239.332 7.303 239.152 7.123C238.9 6.871 238.585 6.745 238.207 6.745C238.099 6.745 237.919 6.763 237.667 6.799L234.994 7.42L233.914 7.69L232.375 11.686Z" fill="#EAEAFF"/>
<path d="M169.697 4.909C169.715 4.927 169.49 4.729 169.022 4.315C168.698 4.027 168.455 3.82 168.293 3.694C168.365 3.208 168.545 2.866 168.833 2.668C169.121 2.47 169.499 2.317 169.967 2.209C170.453 2.083 170.975 2.02 171.533 2.02C172.073 2.02 172.622 2.074 173.18 2.182C174.782 2.47 176.195 2.803 177.419 3.181C178.643 3.559 179.786 4.09 180.848 4.774C181.586 5.224 182.207 5.755 182.711 6.367C183.449 7.321 183.818 8.293 183.818 9.283C183.818 10.129 183.539 11.002 182.981 11.902C180.857 15.268 178.67 17.923 176.42 19.867C175.052 21.073 173.54 22.063 171.884 22.837C171.272 23.143 170.633 23.296 169.967 23.296C169.175 23.296 168.41 23.071 167.672 22.621C167.402 22.441 167.195 22.252 167.051 22.054C166.907 21.874 166.835 21.658 166.835 21.406L166.862 21.163L167.051 19.759C167.267 18.103 167.465 16.87 167.645 16.06L167.78 15.466C168.32 13.126 168.725 11.245 168.995 9.823C169.265 8.383 169.463 6.907 169.589 5.395L169.697 4.909ZM173.261 4.585C173.045 4.567 172.757 4.585 172.397 4.639L171.803 4.72C172.235 5.08 172.55 5.395 172.748 5.665C172.946 5.935 173.045 6.223 173.045 6.529C173.045 6.601 173.027 6.727 172.991 6.907C172.757 7.951 172.442 9.238 172.046 10.768L171.074 14.656C170.642 16.42 170.264 18.058 169.94 19.57C169.886 19.768 169.85 19.993 169.832 20.245C169.832 20.479 169.832 20.65 169.832 20.758C169.994 20.83 170.084 20.866 170.102 20.866L170.453 20.731C173.153 19.417 175.457 17.581 177.365 15.223C178.139 14.233 178.787 13.297 179.309 12.415C179.849 11.533 180.254 10.606 180.524 9.634C180.596 9.4 180.632 9.121 180.632 8.797C180.632 8.239 180.488 7.735 180.2 7.285C179.93 6.835 179.552 6.493 179.066 6.259C177.266 5.449 175.331 4.891 173.261 4.585ZM204.318 20.596C204.804 20.506 205.812 20.299 207.342 19.975L209.421 19.543C209.655 19.777 209.853 19.984 210.015 20.164C210.177 20.344 210.258 20.497 210.258 20.623C210.258 20.767 210.186 20.911 210.042 21.055C209.898 21.199 209.61 21.433 209.178 21.757C209.124 21.793 209.061 21.856 208.989 21.946C208.935 22.036 208.872 22.09 208.8 22.108L208.071 22.297C207.459 22.477 206.91 22.612 206.424 22.702C205.956 22.81 205.479 22.864 204.993 22.864C203.265 22.864 201.852 22.351 200.754 21.325C200.34 20.947 200.016 20.569 199.782 20.191C199.566 19.795 199.458 19.372 199.458 18.922C199.458 18.724 199.467 18.58 199.485 18.49C199.773 16.708 200.097 15.196 200.457 13.954C200.835 12.586 201.519 10.264 202.509 6.988C202.725 6.214 203.067 5.053 203.535 3.505C203.661 3.091 203.832 2.803 204.048 2.641C204.282 2.479 204.615 2.416 205.047 2.452C205.137 2.452 205.218 2.461 205.29 2.479C205.38 2.497 205.47 2.506 205.56 2.506C206.676 2.596 207.234 3.136 207.234 4.126C207.234 4.378 207.198 4.639 207.126 4.909C206.982 5.485 206.712 6.259 206.316 7.231C204.858 10.939 203.733 14.512 202.941 17.95C202.833 18.382 202.779 18.832 202.779 19.3C202.779 20.182 203.166 20.623 203.94 20.623C204.102 20.623 204.228 20.614 204.318 20.596Z" fill="#375FEC"/>
</g>
<defs>
<filter id="filter0_d_113_2" x="0.132996" y="0.940002" width="251.254" height="37.403" filterUnits="userSpaceOnUse" color-interpolation-filters="sRGB">
<feFlood flood-opacity="0" result="BackgroundImageFix"/>
<feColorMatrix in="SourceAlpha" type="matrix" values="0 0 0 0 0 0 0 0 0 0 0 0 0 0 0 0 0 0 127 0" result="hardAlpha"/>
<feOffset dy="4"/>
<feGaussianBlur stdDeviation="2"/>
<feComposite in2="hardAlpha" operator="out"/>
<feColorMatrix type="matrix" values="0 0 0 0 0 0 0 0 0 0 0 0 0 0 0 0 0 0 0.25 0"/>
<feBlend mode="normal" in2="BackgroundImageFix" result="effect1_dropShadow_113_2"/>
<feBlend mode="normal" in="SourceGraphic" in2="effect1_dropShadow_113_2" result="shape"/>
</filter>
</defs>
</svg>
