<svg width="41" height="32" viewBox="0 0 41 32" fill="none" xmlns="http://www.w3.org/2000/svg">
<g filter="url(#filter0_d_113_2)">
<path d="M7.212 4.909C7.23 4.927 7.005 4.729 6.537 4.315C6.213 4.027 5.97 3.82 5.808 3.694C5.88 3.208 6.06 2.866 6.348 2.668C6.636 2.47 7.014 2.317 7.482 2.209C7.968 2.083 8.49 2.02 9.048 2.02C9.588 2.02 10.137 2.074 10.695 2.182C12.297 2.47 13.71 2.803 14.934 3.181C16.158 3.559 17.301 4.09 18.363 4.774C19.101 5.224 19.722 5.755 20.226 6.367C20.964 7.321 21.333 8.293 21.333 9.283C21.333 10.129 21.054 11.002 20.496 11.902C18.372 15.268 16.185 17.923 13.935 19.867C12.567 21.073 11.055 22.063 9.399 22.837C8.787 23.143 8.148 23.296 7.482 23.296C6.69 23.296 5.925 23.071 5.187 22.621C4.917 22.441 4.71 22.252 4.566 22.054C4.422 21.874 4.35 21.658 4.35 21.406L4.377 21.163L4.566 19.759C4.782 18.103 4.98 16.87 5.16 16.06L5.295 15.466C5.835 13.126 6.24 11.245 6.51 9.823C6.78 8.383 6.978 6.907 7.104 5.395L7.212 4.909ZM10.776 4.585C10.56 4.567 10.272 4.585 9.912 4.639L9.318 4.72C9.75 5.08 10.065 5.395 10.263 5.665C10.461 5.935 10.56 6.223 10.56 6.529C10.56 6.601 10.542 6.727 10.506 6.907C10.272 7.951 9.957 9.238 9.561 10.768L8.589 14.656C8.157 16.42 7.779 18.058 7.455 19.57C7.401 19.768 7.365 19.993 7.347 20.245C7.347 20.479 7.347 20.65 7.347 20.758C7.509 20.83 7.599 20.866 7.617 20.866L7.968 20.731C10.668 19.417 12.972 17.581 14.88 15.223C15.654 14.233 16.302 13.297 16.824 12.415C17.364 11.533 17.769 10.606 18.039 9.634C18.111 9.4 18.147 9.121 18.147 8.797C18.147 8.239 18.003 7.735 17.715 7.285C17.445 6.835 17.067 6.493 16.581 6.259C14.781 5.449 12.846 4.891 10.776 4.585ZM21.9949 15.007C22.7149 12.901 23.4529 10.858 24.2089 8.878L24.8569 7.096C24.3169 7.042 24.0469 6.835 24.0469 6.475C24.0469 6.349 24.0739 6.223 24.1279 6.097C24.5599 5.125 24.9109 4.414 25.1809 3.964C25.5769 3.298 25.9639 2.695 26.3419 2.155L27.0709 1.048C27.3589 0.975999 27.5659 0.939999 27.6919 0.939999C27.9259 0.939999 28.1509 0.975999 28.3669 1.048C28.6009 1.12 28.8259 1.21 29.0419 1.318C29.2759 1.408 29.4649 1.48 29.6089 1.534C30.0589 1.732 30.2839 2.083 30.2839 2.587C30.2839 2.821 30.2479 3.046 30.1759 3.262C29.8699 4.252 29.3569 5.719 28.6369 7.663L27.4219 10.822C26.4859 13.234 25.8019 15.043 25.3699 16.249C25.1179 17.005 24.9109 17.824 24.7489 18.706C24.6049 19.588 24.5149 20.11 24.4789 20.272C24.4429 20.524 24.4249 20.686 24.4249 20.758C24.4249 21.028 24.4969 21.226 24.6409 21.352C24.8029 21.478 25.0639 21.577 25.4239 21.649C25.9999 21.739 26.7109 21.784 27.5569 21.784C30.3649 21.748 33.1189 21.316 35.8189 20.488C35.8369 20.506 35.8549 20.515 35.8729 20.515C35.8909 20.515 35.9089 20.533 35.9269 20.569L36.2239 21.46C35.8099 21.946 35.3239 22.315 34.7659 22.567C34.2259 22.819 33.5419 23.053 32.7139 23.269C32.0659 23.449 31.4179 23.566 30.7699 23.62C30.1399 23.692 29.2489 23.755 28.0969 23.809C27.9169 23.827 27.6559 23.836 27.3139 23.836C26.5579 23.836 25.8109 23.782 25.0729 23.674C24.0649 23.53 23.0389 23.044 21.9949 22.216C21.1849 21.532 20.7799 20.713 20.7799 19.759C20.7799 19.435 20.8159 19.138 20.8879 18.868C21.2299 17.41 21.5989 16.123 21.9949 15.007Z" fill="#375FEC"/>
</g>
<defs>
<filter id="filter0_d_113_2" x="0.349976" y="0.940002" width="39.874" height="30.896" filterUnits="userSpaceOnUse" color-interpolation-filters="sRGB">
<feFlood flood-opacity="0" result="BackgroundImageFix"/>
<feColorMatrix in="SourceAlpha" type="matrix" values="0 0 0 0 0 0 0 0 0 0 0 0 0 0 0 0 0 0 127 0" result="hardAlpha"/>
<feOffset dy="4"/>
<feGaussianBlur stdDeviation="2"/>
<feComposite in2="hardAlpha" operator="out"/>
<feColorMatrix type="matrix" values="0 0 0 0 0 0 0 0 0 0 0 0 0 0 0 0 0 0 0.25 0"/>
<feBlend mode="normal" in2="BackgroundImageFix" result="effect1_dropShadow_113_2"/>
<feBlend mode="normal" in="SourceGraphic" in2="effect1_dropShadow_113_2" result="shape"/>
</filter>
</defs>
</svg>
